King of Devil's Island (2010) 
Kongen av Bastøy (original title)
120 min  -  Drama | Action   -  7 December 2011 (Netherlands)
7.5 Your rating:    -/10   Ratings: 7.5/10 from 1,252 users   
Reviews: 5 user | 21 critic
Norwegian winter, early 20th century. On the boys home Bastoy, a new inmate leads the boys to a violent uprising against a brutal regime. How far is he willing to go to attain freedom?

Director: Marius Holst
Writers: Lars Saabye Christensen (story), Dennis Magnusson (screenplay), and 2 more credits »
Stars: Stellan Skarsgård, Benjamin Helstad and Kristoffer Joner

General
Complete name                    : D:\Videos\King.of.Devils.Island.2010.DVDRip.XviD.MP3-NiPiTiX\King.of.Devils.Island.2010.DVDRip.XviD.MP3-NiPiTiX.avi
Format                           : AVI
Format/Info                      : Audio Video Interleave
File size                        : 698 MiB
Duration                         : 1h 51mn
Overall bit rate                 : 874 Kbps
Writing application              : VirtualDubMod 1.5.10.2 (build 2540/release)
Writing library                  : VirtualDubMod build 2540/release

Video
ID                               : 0
Format                           : MPEG-4 Visual
Format profile                   : Advanced Simple@L5
Format settings, BVOP            : 3
Format settings, QPel            : No
Format settings, GMC             : No warppoints
Format settings, Matrix          : Default (H.263)
Codec ID                         : XVID
Codec ID/Hint                    : XviD
Duration                         : 1h 51mn
Bit rate                         : 739 Kbps
Width                            : 720 pixels
Height                           : 304 pixels
Display aspect ratio             : 2.35:1
Frame rate                       : 25.000 fps
Color space                      : YUV
Chroma subsampling               : 4:2:0
Bit depth                        : 8 bits
Scan type                        : Progressive
Compression mode                 : Lossy
Bits/(Pixel*Frame)               : 0.135
Stream size                      : 590 MiB (85%)
Writing library                  : XviD 1.2.1 (UTC 2008-12-04)

Audio
ID                               : 1
Format                           : MPEG Audio
Format version                   : Version 1
Format profile                   : Layer 3
Codec ID                         : 55
Codec ID/Hint                    : MP3
Duration                         : 1h 51mn
Bit rate mode                    : Variable
Bit rate                         : 128 Kbps
Channel(s)                       : 2 channels
Sampling rate                    : 48.0 KHz
Compression mode                 : Lossy
Stream size                      : 97.6 MiB (14%)
Alignment                        : Aligned on interleaves
Interleave, duration             : 24 ms (0.60 video frame)
Interleave, preload duration     : 150 ms
Writing library                  : LAME3.98r
Encoding settings                : -m s -V 4 -q 0 -lowpass 17 --abr 128

English srt subtitles included.
